<mxfile host="app.diagrams.net" modified="2022-05-03T15:03:15.608Z" agent="5.0 (X11)" etag="nL5Mqe81eeJqjptJz-cZ" version="17.5.0" type="github">
  <diagram id="C5RBs43oDa-KdzZeNtuy" name="Page-1">
    <mxGraphModel dx="1119" dy="1793" grid="1" gridSize="10" guides="1" tooltips="1" connect="1" arrows="1" fold="1" page="1" pageScale="1" pageWidth="827" pageHeight="1169" math="0" shadow="0">
      <root>
        <mxCell id="WIyWlLk6GJQsqaUBKTNV-0" />
        <mxCell id="WIyWlLk6GJQsqaUBKTNV-1" parent="WIyWlLk6GJQsqaUBKTNV-0" />
        <mxCell id="m8ILMCIDl4LKzQP6M4_y-260" style="edgeStyle=orthogonalEdgeStyle;rounded=0;orthogonalLoop=1;jettySize=auto;html=1;exitX=1;exitY=0.3333333333333333;exitDx=0;exitDy=0;exitPerimeter=0;entryX=-0.007;entryY=0.412;entryDx=0;entryDy=0;entryPerimeter=0;fontSize=17;" edge="1" parent="WIyWlLk6GJQsqaUBKTNV-1" source="m8ILMCIDl4LKzQP6M4_y-250" target="m8ILMCIDl4LKzQP6M4_y-258">
          <mxGeometry relative="1" as="geometry" />
        </mxCell>
        <mxCell id="m8ILMCIDl4LKzQP6M4_y-250" value="Acheteur" style="shape=umlActor;verticalLabelPosition=bottom;verticalAlign=top;html=1;outlineConnect=0;fontSize=17;" vertex="1" parent="WIyWlLk6GJQsqaUBKTNV-1">
          <mxGeometry x="80" y="230" width="30" height="60" as="geometry" />
        </mxCell>
        <mxCell id="m8ILMCIDl4LKzQP6M4_y-254" style="edgeStyle=orthogonalEdgeStyle;rounded=0;orthogonalLoop=1;jettySize=auto;html=1;exitX=0.5;exitY=0.5;exitDx=0;exitDy=0;exitPerimeter=0;fontSize=17;" edge="1" parent="WIyWlLk6GJQsqaUBKTNV-1" source="m8ILMCIDl4LKzQP6M4_y-251" target="m8ILMCIDl4LKzQP6M4_y-253">
          <mxGeometry relative="1" as="geometry" />
        </mxCell>
        <mxCell id="m8ILMCIDl4LKzQP6M4_y-264" style="edgeStyle=orthogonalEdgeStyle;rounded=0;orthogonalLoop=1;jettySize=auto;html=1;entryX=0.5;entryY=1;entryDx=0;entryDy=0;fontSize=17;" edge="1" parent="WIyWlLk6GJQsqaUBKTNV-1" source="m8ILMCIDl4LKzQP6M4_y-251" target="m8ILMCIDl4LKzQP6M4_y-261">
          <mxGeometry relative="1" as="geometry">
            <Array as="points">
              <mxPoint x="95" y="560" />
              <mxPoint x="474" y="560" />
            </Array>
          </mxGeometry>
        </mxCell>
        <mxCell id="m8ILMCIDl4LKzQP6M4_y-251" value="Vétérinaire" style="shape=umlActor;verticalLabelPosition=bottom;verticalAlign=top;html=1;outlineConnect=0;fontSize=17;" vertex="1" parent="WIyWlLk6GJQsqaUBKTNV-1">
          <mxGeometry x="80" y="420" width="30" height="60" as="geometry" />
        </mxCell>
        <mxCell id="m8ILMCIDl4LKzQP6M4_y-253" value="&lt;font style=&quot;font-size: 14px&quot;&gt;Examiner maternité&lt;br&gt;&lt;/font&gt;" style="ellipse;whiteSpace=wrap;html=1;fontSize=17;" vertex="1" parent="WIyWlLk6GJQsqaUBKTNV-1">
          <mxGeometry x="210" y="425" width="120" height="50" as="geometry" />
        </mxCell>
        <mxCell id="m8ILMCIDl4LKzQP6M4_y-256" style="edgeStyle=orthogonalEdgeStyle;rounded=0;orthogonalLoop=1;jettySize=auto;html=1;exitX=0.5;exitY=1;exitDx=0;exitDy=0;fontSize=17;" edge="1" parent="WIyWlLk6GJQsqaUBKTNV-1" source="m8ILMCIDl4LKzQP6M4_y-255" target="m8ILMCIDl4LKzQP6M4_y-253">
          <mxGeometry relative="1" as="geometry" />
        </mxCell>
        <mxCell id="m8ILMCIDl4LKzQP6M4_y-255" value="jument" style="ellipse;whiteSpace=wrap;html=1;fontSize=17;" vertex="1" parent="WIyWlLk6GJQsqaUBKTNV-1">
          <mxGeometry x="210" y="320" width="120" height="50" as="geometry" />
        </mxCell>
        <mxCell id="m8ILMCIDl4LKzQP6M4_y-257" value="&amp;lt;&amp;lt;extend&amp;gt;&amp;gt;" style="text;html=1;align=center;verticalAlign=middle;resizable=0;points=[];autosize=1;strokeColor=none;fillColor=none;fontSize=17;" vertex="1" parent="WIyWlLk6GJQsqaUBKTNV-1">
          <mxGeometry x="270" y="385" width="110" height="30" as="geometry" />
        </mxCell>
        <mxCell id="m8ILMCIDl4LKzQP6M4_y-262" style="edgeStyle=orthogonalEdgeStyle;rounded=0;orthogonalLoop=1;jettySize=auto;html=1;exitX=1;exitY=0.5;exitDx=0;exitDy=0;fontSize=17;" edge="1" parent="WIyWlLk6GJQsqaUBKTNV-1" source="m8ILMCIDl4LKzQP6M4_y-258" target="m8ILMCIDl4LKzQP6M4_y-261">
          <mxGeometry relative="1" as="geometry" />
        </mxCell>
        <mxCell id="m8ILMCIDl4LKzQP6M4_y-276" style="edgeStyle=orthogonalEdgeStyle;rounded=0;orthogonalLoop=1;jettySize=auto;html=1;exitX=1;exitY=0.5;exitDx=0;exitDy=0;entryX=1;entryY=0;entryDx=0;entryDy=0;fontSize=14;" edge="1" parent="WIyWlLk6GJQsqaUBKTNV-1" source="m8ILMCIDl4LKzQP6M4_y-274" target="m8ILMCIDl4LKzQP6M4_y-258">
          <mxGeometry relative="1" as="geometry">
            <Array as="points">
              <mxPoint x="470" y="20" />
              <mxPoint x="470" y="200" />
              <mxPoint x="312" y="200" />
            </Array>
          </mxGeometry>
        </mxCell>
        <mxCell id="m8ILMCIDl4LKzQP6M4_y-283" style="edgeStyle=orthogonalEdgeStyle;rounded=0;orthogonalLoop=1;jettySize=auto;html=1;exitX=0.5;exitY=1;exitDx=0;exitDy=0;fontSize=14;" edge="1" parent="WIyWlLk6GJQsqaUBKTNV-1" source="m8ILMCIDl4LKzQP6M4_y-258" target="m8ILMCIDl4LKzQP6M4_y-255">
          <mxGeometry relative="1" as="geometry" />
        </mxCell>
        <mxCell id="m8ILMCIDl4LKzQP6M4_y-258" value="Cheval" style="ellipse;whiteSpace=wrap;html=1;fontSize=17;" vertex="1" parent="WIyWlLk6GJQsqaUBKTNV-1">
          <mxGeometry x="210" y="230" width="120" height="50" as="geometry" />
        </mxCell>
        <mxCell id="m8ILMCIDl4LKzQP6M4_y-279" style="edgeStyle=orthogonalEdgeStyle;rounded=0;orthogonalLoop=1;jettySize=auto;html=1;exitX=1;exitY=0.5;exitDx=0;exitDy=0;fontSize=14;" edge="1" parent="WIyWlLk6GJQsqaUBKTNV-1" source="m8ILMCIDl4LKzQP6M4_y-261" target="m8ILMCIDl4LKzQP6M4_y-278">
          <mxGeometry relative="1" as="geometry" />
        </mxCell>
        <mxCell id="m8ILMCIDl4LKzQP6M4_y-261" value="Vaccins" style="ellipse;whiteSpace=wrap;html=1;fontSize=17;" vertex="1" parent="WIyWlLk6GJQsqaUBKTNV-1">
          <mxGeometry x="414" y="407.5" width="120" height="45" as="geometry" />
        </mxCell>
        <mxCell id="m8ILMCIDl4LKzQP6M4_y-266" value="&lt;font style=&quot;font-size: 12px&quot;&gt;&amp;lt;&amp;lt;extend&amp;gt;&amp;gt;&lt;/font&gt;" style="text;html=1;align=center;verticalAlign=middle;resizable=0;points=[];autosize=1;strokeColor=none;fillColor=none;fontSize=17;" vertex="1" parent="WIyWlLk6GJQsqaUBKTNV-1">
          <mxGeometry x="374" y="230" width="80" height="30" as="geometry" />
        </mxCell>
        <mxCell id="m8ILMCIDl4LKzQP6M4_y-269" style="edgeStyle=orthogonalEdgeStyle;rounded=0;orthogonalLoop=1;jettySize=auto;html=1;exitX=0.5;exitY=1;exitDx=0;exitDy=0;entryX=0.5;entryY=0;entryDx=0;entryDy=0;fontSize=14;" edge="1" parent="WIyWlLk6GJQsqaUBKTNV-1" source="m8ILMCIDl4LKzQP6M4_y-267" target="m8ILMCIDl4LKzQP6M4_y-258">
          <mxGeometry relative="1" as="geometry" />
        </mxCell>
        <mxCell id="m8ILMCIDl4LKzQP6M4_y-267" value="consulter caractère/robe" style="ellipse;whiteSpace=wrap;html=1;fontSize=14;" vertex="1" parent="WIyWlLk6GJQsqaUBKTNV-1">
          <mxGeometry x="210" y="100" width="120" height="70" as="geometry" />
        </mxCell>
        <mxCell id="m8ILMCIDl4LKzQP6M4_y-275" style="edgeStyle=orthogonalEdgeStyle;rounded=0;orthogonalLoop=1;jettySize=auto;html=1;exitX=1;exitY=0.3333333333333333;exitDx=0;exitDy=0;exitPerimeter=0;fontSize=14;" edge="1" parent="WIyWlLk6GJQsqaUBKTNV-1" source="m8ILMCIDl4LKzQP6M4_y-273" target="m8ILMCIDl4LKzQP6M4_y-274">
          <mxGeometry relative="1" as="geometry" />
        </mxCell>
        <mxCell id="m8ILMCIDl4LKzQP6M4_y-273" value="Haras Nationaux" style="shape=umlActor;verticalLabelPosition=bottom;verticalAlign=top;html=1;outlineConnect=0;fontSize=14;" vertex="1" parent="WIyWlLk6GJQsqaUBKTNV-1">
          <mxGeometry x="90" width="30" height="60" as="geometry" />
        </mxCell>
        <mxCell id="m8ILMCIDl4LKzQP6M4_y-274" value="&lt;div&gt;regroupe info&lt;/div&gt;&lt;div&gt;&amp;nbsp;dans db&lt;/div&gt;" style="ellipse;whiteSpace=wrap;html=1;fontSize=14;" vertex="1" parent="WIyWlLk6GJQsqaUBKTNV-1">
          <mxGeometry x="220" y="-20" width="120" height="80" as="geometry" />
        </mxCell>
        <mxCell id="m8ILMCIDl4LKzQP6M4_y-278" value="Achat" style="ellipse;whiteSpace=wrap;html=1;fontSize=14;" vertex="1" parent="WIyWlLk6GJQsqaUBKTNV-1">
          <mxGeometry x="640" y="390" width="120" height="80" as="geometry" />
        </mxCell>
        <mxCell id="m8ILMCIDl4LKzQP6M4_y-280" value="&amp;lt;&amp;lt;include&amp;gt;&amp;gt;" style="text;html=1;align=center;verticalAlign=middle;resizable=0;points=[];autosize=1;strokeColor=none;fillColor=none;fontSize=14;" vertex="1" parent="WIyWlLk6GJQsqaUBKTNV-1">
          <mxGeometry x="535" y="407.5" width="90" height="20" as="geometry" />
        </mxCell>
        <mxCell id="m8ILMCIDl4LKzQP6M4_y-281" value="&amp;lt;&amp;lt;extend&amp;gt;&amp;gt;" style="text;html=1;align=center;verticalAlign=middle;resizable=0;points=[];autosize=1;strokeColor=none;fillColor=none;fontSize=14;" vertex="1" parent="WIyWlLk6GJQsqaUBKTNV-1">
          <mxGeometry x="380" y="90" width="90" height="20" as="geometry" />
        </mxCell>
        <mxCell id="m8ILMCIDl4LKzQP6M4_y-284" value="&lt;font style=&quot;font-size: 13px&quot;&gt;&amp;lt;&amp;lt;extend&amp;gt;&amp;gt;&lt;/font&gt;" style="text;html=1;align=center;verticalAlign=middle;resizable=0;points=[];autosize=1;strokeColor=none;fillColor=none;fontSize=17;" vertex="1" parent="WIyWlLk6GJQsqaUBKTNV-1">
          <mxGeometry x="190" y="180" width="80" height="30" as="geometry" />
        </mxCell>
      </root>
    </mxGraphModel>
  </diagram>
</mxfile>
